<svg width="147" height="34" viewBox="0 0 147 34" fill="none" xmlns="http://www.w3.org/2000/svg">
<path d="M0.299766 33L3.28777 2.076H13.7638L16.7158 33H10.8478L10.4158 27.996H6.67177L6.31177 33H0.299766ZM7.13977 23.064H9.94777L8.57977 7.332H8.29177L7.13977 23.064ZM18.4924 6.648H24.7924V9.996C25.0564 8.916 25.5124 8.04 26.1604 7.368C26.8084 6.696 27.6724 6.36 28.7524 6.36C30.5284 6.36 31.8364 6.912 32.6764 8.016C33.5404 9.096 33.9724 10.644 33.9724 12.66V33H27.7804V13.308C27.7804 12.732 27.6604 12.24 27.4204 11.832C27.2044 11.424 26.8564 11.22 26.3764 11.22C25.7284 11.22 25.2964 11.52 25.0804 12.12C24.8884 12.696 24.7924 13.476 24.7924 14.46V33H18.4924V6.648ZM36.4213 4.884V0.491998H42.7213V4.884H36.4213ZM36.4213 33V6.648H42.7213V33H36.4213ZM45.2112 6.648H51.3672V9.708C51.6552 8.58 52.1472 7.74 52.8432 7.188C53.5392 6.636 54.5232 6.36 55.7952 6.36C56.8272 6.36 57.7152 6.6 58.4592 7.08C59.2272 7.536 59.7672 8.172 60.0792 8.988C60.6072 8.076 61.1952 7.416 61.8432 7.008C62.4912 6.576 63.3912 6.36 64.5432 6.36C66.6072 6.36 68.0352 6.996 68.8272 8.268C69.6432 9.516 70.0512 11.34 70.0512 13.74L69.9792 33H63.6432V13.632C63.6432 11.928 63.2112 11.076 62.3472 11.076C61.7472 11.076 61.3152 11.376 61.0512 11.976C60.7872 12.552 60.6552 13.248 60.6552 14.064V33H54.3552V13.632C54.3552 12.888 54.2712 12.288 54.1032 11.832C53.9592 11.376 53.6352 11.148 53.1312 11.148C52.4832 11.148 52.0272 11.472 51.7632 12.12C51.4992 12.744 51.3672 13.5 51.3672 14.388V33H45.2112V6.648ZM79.8724 33.288C77.1604 33.288 75.2164 32.544 74.0404 31.056C72.8644 29.568 72.2764 27.348 72.2764 24.396V13.812C72.2764 11.388 72.9724 9.54 74.3644 8.268C75.7564 6.996 77.7004 6.36 80.1964 6.36C85.2604 6.36 87.7924 8.844 87.7924 13.812V15.72C87.7924 17.64 87.7684 19.2 87.7204 20.4H78.5764V25.512C78.5764 26.424 78.6724 27.144 78.8644 27.672C79.0564 28.176 79.4644 28.428 80.0884 28.428C80.5684 28.428 80.9044 28.284 81.0964 27.996C81.3124 27.708 81.4324 27.384 81.4564 27.024C81.5044 26.64 81.5284 26.088 81.5284 25.368V22.812H87.7924V24.324C87.7924 27.396 87.1924 29.664 85.9924 31.128C84.8164 32.568 82.7764 33.288 79.8724 33.288ZM81.5284 17.268V13.884C81.5284 11.988 81.0604 11.04 80.1244 11.04C79.0684 11.04 78.5404 11.988 78.5404 13.884V17.268H81.5284ZM90.1785 33V2.076H96.3705V27.744H102.743V33H90.1785ZM109.167 33.288C107.127 33.288 105.723 32.616 104.955 31.272C104.211 29.904 103.839 27.96 103.839 25.44C103.839 23.376 104.103 21.792 104.631 20.688C105.183 19.584 105.939 18.78 106.899 18.276C107.859 17.748 109.323 17.172 111.291 16.548L113.019 15.972V15.9V13.272C113.019 12.576 112.875 12.048 112.587 11.688C112.323 11.304 111.999 11.112 111.615 11.112C111.279 11.112 110.979 11.268 110.715 11.58C110.475 11.892 110.355 12.312 110.355 12.84V14.424H104.235V13.56C104.235 10.968 104.835 9.12 106.035 8.016C107.259 6.912 109.239 6.36 111.975 6.36C114.159 6.36 115.935 6.936 117.303 8.088C118.671 9.216 119.355 10.824 119.355 12.912V33H113.091V29.868C112.779 30.948 112.275 31.788 111.579 32.388C110.907 32.988 110.103 33.288 109.167 33.288ZM111.651 28.392C112.131 28.392 112.467 28.2 112.659 27.816C112.875 27.408 112.983 26.916 112.983 26.34V18.996C112.047 19.356 111.351 19.812 110.895 20.364C110.463 20.916 110.247 21.684 110.247 22.668V26.052C110.247 27.612 110.715 28.392 111.651 28.392ZM121.745 4.884V0.491998H128.045V4.884H121.745ZM121.745 33V6.648H128.045V33H121.745ZM130.535 6.648H136.835V9.996C137.099 8.916 137.555 8.04 138.203 7.368C138.851 6.696 139.715 6.36 140.795 6.36C142.571 6.36 143.879 6.912 144.719 8.016C145.583 9.096 146.015 10.644 146.015 12.66V33H139.823V13.308C139.823 12.732 139.703 12.24 139.463 11.832C139.247 11.424 138.899 11.22 138.419 11.22C137.771 11.22 137.339 11.52 137.123 12.12C136.931 12.696 136.835 13.476 136.835 14.46V33H130.535V6.648Z" fill="#03A9F5"/>
</svg>
