<svg width="156" height="34" viewBox="0 0 156 34" fill="none" xmlns="http://www.w3.org/2000/svg">
<path d="M0.711875 33L3.69988 2.076H14.1759L17.1279 33H11.2599L10.8279 27.996H7.08388L6.72388 33H0.711875ZM7.55188 23.064H10.3599L8.99188 7.332H8.70388L7.55188 23.064ZM18.9045 6.648H25.2045V9.996C25.4685 8.916 25.9245 8.04 26.5725 7.368C27.2205 6.696 28.0845 6.36 29.1645 6.36C30.9405 6.36 32.2485 6.912 33.0885 8.016C33.9525 9.096 34.3845 10.644 34.3845 12.66V33H28.1925V13.308C28.1925 12.732 28.0725 12.24 27.8325 11.832C27.6165 11.424 27.2685 11.22 26.7885 11.22C26.1405 11.22 25.7085 11.52 25.4925 12.12C25.3005 12.696 25.2045 13.476 25.2045 14.46V33H18.9045V6.648ZM36.8334 4.884V0.491998H43.1334V4.884H36.8334ZM36.8334 33V6.648H43.1334V33H36.8334ZM45.6233 6.648H51.7793V9.708C52.0673 8.58 52.5593 7.74 53.2553 7.188C53.9513 6.636 54.9353 6.36 56.2073 6.36C57.2393 6.36 58.1273 6.6 58.8713 7.08C59.6393 7.536 60.1793 8.172 60.4913 8.988C61.0193 8.076 61.6073 7.416 62.2553 7.008C62.9033 6.576 63.8033 6.36 64.9553 6.36C67.0193 6.36 68.4473 6.996 69.2393 8.268C70.0553 9.516 70.4633 11.34 70.4633 13.74L70.3913 33H64.0553V13.632C64.0553 11.928 63.6233 11.076 62.7593 11.076C62.1593 11.076 61.7273 11.376 61.4633 11.976C61.1993 12.552 61.0673 13.248 61.0673 14.064V33H54.7673V13.632C54.7673 12.888 54.6833 12.288 54.5153 11.832C54.3713 11.376 54.0473 11.148 53.5433 11.148C52.8953 11.148 52.4393 11.472 52.1753 12.12C51.9113 12.744 51.7793 13.5 51.7793 14.388V33H45.6233V6.648ZM80.2845 33.288C77.5725 33.288 75.6285 32.544 74.4525 31.056C73.2765 29.568 72.6885 27.348 72.6885 24.396V13.812C72.6885 11.388 73.3845 9.54 74.7765 8.268C76.1685 6.996 78.1125 6.36 80.6085 6.36C85.6725 6.36 88.2045 8.844 88.2045 13.812V15.72C88.2045 17.64 88.1805 19.2 88.1325 20.4H78.9885V25.512C78.9885 26.424 79.0845 27.144 79.2765 27.672C79.4685 28.176 79.8765 28.428 80.5005 28.428C80.9805 28.428 81.3165 28.284 81.5085 27.996C81.7245 27.708 81.8445 27.384 81.8685 27.024C81.9165 26.64 81.9405 26.088 81.9405 25.368V22.812H88.2045V24.324C88.2045 27.396 87.6045 29.664 86.4045 31.128C85.2285 32.568 83.1885 33.288 80.2845 33.288ZM81.9405 17.268V13.884C81.9405 11.988 81.4725 11.04 80.5365 11.04C79.4805 11.04 78.9525 11.988 78.9525 13.884V17.268H81.9405ZM90.5907 33V2.076H96.7827V27.744H103.155V33H90.5907ZM109.579 33.288C107.539 33.288 106.135 32.616 105.367 31.272C104.623 29.904 104.251 27.96 104.251 25.44C104.251 23.376 104.515 21.792 105.043 20.688C105.595 19.584 106.351 18.78 107.311 18.276C108.271 17.748 109.735 17.172 111.703 16.548L113.431 15.972V15.9V13.272C113.431 12.576 113.287 12.048 112.999 11.688C112.735 11.304 112.411 11.112 112.027 11.112C111.691 11.112 111.391 11.268 111.127 11.58C110.887 11.892 110.767 12.312 110.767 12.84V14.424H104.647V13.56C104.647 10.968 105.247 9.12 106.447 8.016C107.671 6.912 109.651 6.36 112.387 6.36C114.571 6.36 116.347 6.936 117.715 8.088C119.083 9.216 119.767 10.824 119.767 12.912V33H113.503V29.868C113.191 30.948 112.687 31.788 111.991 32.388C111.319 32.988 110.515 33.288 109.579 33.288ZM112.063 28.392C112.543 28.392 112.879 28.2 113.071 27.816C113.287 27.408 113.395 26.916 113.395 26.34V18.996C112.459 19.356 111.763 19.812 111.307 20.364C110.875 20.916 110.659 21.684 110.659 22.668V26.052C110.659 27.612 111.127 28.392 112.063 28.392ZM122.194 6.648H128.494V9.996C128.758 8.916 129.214 8.04 129.862 7.368C130.51 6.696 131.374 6.36 132.454 6.36C134.23 6.36 135.538 6.912 136.378 8.016C137.242 9.096 137.674 10.644 137.674 12.66V33H131.482V13.308C131.482 12.732 131.362 12.24 131.122 11.832C130.906 11.424 130.558 11.22 130.078 11.22C129.43 11.22 128.998 11.52 128.782 12.12C128.59 12.696 128.494 13.476 128.494 14.46V33H122.194V6.648ZM145.342 33.288C143.806 33.288 142.642 32.928 141.85 32.208C141.082 31.464 140.566 30.492 140.302 29.292C140.062 28.068 139.942 26.508 139.942 24.612L140.014 12.732C140.014 10.86 140.482 9.336 141.418 8.16C142.378 6.96 143.722 6.36 145.45 6.36C147.154 6.36 148.426 6.924 149.266 8.052V1.896H155.566V33H149.266V30.192C148.906 31.224 148.414 32.004 147.79 32.532C147.19 33.036 146.374 33.288 145.342 33.288ZM147.754 28.356C148.378 28.356 148.786 28.056 148.978 27.456C149.17 26.832 149.266 26.004 149.266 24.972V23.856V13.956C149.266 13.188 149.158 12.54 148.942 12.012C148.726 11.484 148.342 11.22 147.79 11.22C147.166 11.22 146.746 11.472 146.53 11.976C146.338 12.456 146.242 13.116 146.242 13.956V25.044C146.242 27.252 146.746 28.356 147.754 28.356Z" fill="#03A9F5"/>
</svg>
